<?xml version="1.0" encoding="UTF-8" standalone="no"?>
<!-- Created with Inkscape (http://www.inkscape.org/) -->

<svg
   xmlns:dc="http://purl.org/dc/elements/1.1/"
   xmlns:cc="http://creativecommons.org/ns#"
   xmlns:rdf="http://www.w3.org/1999/02/22-rdf-syntax-ns#"
   xmlns:svg="http://www.w3.org/2000/svg"
   xmlns="http://www.w3.org/2000/svg"
   xmlns:sodipodi="http://sodipodi.sourceforge.net/DTD/sodipodi-0.dtd"
   xmlns:inkscape="http://www.inkscape.org/namespaces/inkscape"
   width="744.09448819"
   height="1052.3622047"
   id="svg2"
   version="1.1"
   inkscape:version="0.48.5 r10040"
   sodipodi:docname="New document 1">
  <defs
     id="defs4">
    <inkscape:path-effect
       effect="spiro"
       id="path-effect3021"
       is_visible="true" />
  </defs>
  <sodipodi:namedview
     id="base"
     pagecolor="#ffffff"
     bordercolor="#666666"
     borderopacity="1.0"
     inkscape:pageopacity="0.0"
     inkscape:pageshadow="2"
     inkscape:zoom="0.78"
     inkscape:cx="375"
     inkscape:cy="606.44689"
     inkscape:document-units="px"
     inkscape:current-layer="layer1"
     showgrid="false"
     inkscape:window-width="1366"
     inkscape:window-height="705"
     inkscape:window-x="-8"
     inkscape:window-y="-8"
     inkscape:window-maximized="1" />
  <metadata
     id="metadata7">
    <rdf:RDF>
      <cc:Work
         rdf:about="">
        <dc:format>image/svg+xml</dc:format>
        <dc:type
           rdf:resource="http://purl.org/dc/dcmitype/StillImage" />
        <dc:title></dc:title>
      </cc:Work>
    </rdf:RDF>
  </metadata>
  <g
     inkscape:label="Layer 1"
     inkscape:groupmode="layer"
     id="layer1">
    <path
       style="fill:none;stroke:#000000;stroke-width:1px;stroke-linecap:butt;stroke-linejoin:miter;stroke-opacity:1"
       d="m 265.38462,292.10577 c 17.13848,-15.30818 26.83923,-38.58999 25.64102,-61.53846 -0.90409,-17.31534 -7.85878,-34.26035 -19.4,-47.20016 -11.54122,-12.9398 -27.5933,-21.78196 -44.70256,-24.59471 -22.12335,-3.63707 -45.07018,2.74257 -64.35107,14.18453 -19.28088,11.44196 -35.28511,27.66107 -49.7515,44.78983 -25.767607,30.50983 -47.683783,65.18546 -57.692305,103.84615 -12.789144,49.40161 -4.744713,103.84998 21.794872,147.4359 11.552983,18.97344 26.544533,35.99924 44.707173,48.78913 18.16265,12.78989 39.55925,21.24118 61.70308,23.00574 23.83386,1.89924 47.78409,-3.92149 69.75969,-13.34132 21.9756,-9.41983 42.23645,-22.3593 62.2916,-35.37663 25.10339,-16.29402 50.93208,-33.69923 66.09281,-59.50287 7.58037,-12.90181 12.19772,-27.77342 11.66578,-42.72788 -0.53194,-14.95446 -6.50496,-29.92904 -17.50218,-40.07694 -8.07177,-7.44838 -18.61624,-12.09728 -29.52754,-13.35239 -10.9113,-1.25512 -22.14097,0.84182 -32.01093,5.66008 -17.20804,8.40053 -29.89174,25.03246 -34.61538,43.58975 -3.74322,14.7056 -2.73773,30.33169 0.97757,45.04437 3.71531,14.71269 10.05421,28.62872 16.97115,42.13511 16.67501,32.56052 36.84525,63.1862 55.1282,94.8718 10.85266,18.8084 21.13824,38.23493 26.52547,59.27094 5.38723,21.03602 5.53813,44.03793 -3.44854,63.80598 -6.0464,13.30031 -16.38288,24.91722 -29.68029,30.97 -6.64871,3.02639 -13.96558,4.63333 -21.26836,4.44995 -7.30279,-0.18339 -14.58019,-2.17764 -20.84623,-5.93277 -8.21469,-4.92293 -14.46133,-12.70503 -18.69845,-21.29358 -4.23711,-8.58855 -6.5832,-17.98922 -8.22462,-27.42437 -1.79598,-10.32359 -2.7735,-20.99262 -0.54274,-31.23107 1.11538,-5.11922 3.03924,-10.08787 5.91406,-14.46804 2.87482,-4.38018 6.71877,-8.16054 11.29534,-10.71114 7.60309,-4.23732 16.80946,-4.86171 25.38534,-3.37307 8.57589,1.48864 16.67178,4.94142 24.61466,8.50127 27.59854,12.36917 55.65495,26.66311 85.89744,26.92308 22.73903,0.19547 45.36231,-7.94217 63.14937,-22.10981 17.78706,-14.16764 30.70172,-34.20257 36.85063,-56.09532 9.36156,-33.33115 2.54627,-70.81527 -17.94872,-98.71795 l 11.53846,123.07692 c 4.03224,5.87455 9.95437,10.43004 16.66667,12.82052 5.90168,2.10179 12.34925,2.53652 18.53349,1.53526 6.18425,-1.00127 12.10547,-3.41357 17.39446,-6.77125 C 586.24952,594.257 594.13191,583.94546 600,572.875 c 17.27594,-32.59192 18.11187,-70.98907 21.79487,-107.6923 2.34167,-23.33608 5.96201,-47.12636 0.87389,-70.02105 -2.54406,-11.44735 -7.33188,-22.53189 -14.89222,-31.49599 -7.56033,-8.96411 -18.02003,-15.69392 -29.57141,-17.71373 -12.63475,-2.20924 -25.8055,1.30433 -36.88103,7.77351 -11.07553,6.46919 -20.27016,15.72476 -28.50359,25.55982 -9.28644,11.09292 -17.6514,23.31867 -21.79487,37.17949 -1.45653,4.87241 -2.37913,9.99499 -1.77254,15.04414 0.6066,5.04915 2.88443,10.04152 6.90075,13.16098 2.68928,2.08875 6.06757,3.25541 9.47149,3.3472 3.40391,0.0918 6.81831,-0.88022 9.70484,-2.6866 2.88654,-1.80638 5.24144,-4.43318 6.79199,-7.46483 1.55056,-3.03164 2.30083,-6.45788 2.2368,-9.86243 -0.11774,-6.25998 -3.09306,-12.4245 -7.96708,-16.35454 -4.87402,-3.93003 -11.56489,-5.5297 -17.67394,-4.15828 -5.22108,1.17208 -9.93215,4.46982 -12.82051,8.97436"
       id="path3019"
       inkscape:path-effect="#path-effect3021"
       inkscape:original-d="m 265.38462,292.10577 c 11.53846,-34.61538 25.64102,-48.71795 25.64102,-61.53846 0,-12.82051 -10.25641,-88.46154 -64.10256,-71.79487 -53.84616,16.66667 -103.84616,48.71795 -114.10257,58.97436 -10.25641,10.25641 -43.589741,44.87179 -57.692305,103.84615 -14.102564,58.97436 1.282051,120.51282 21.794872,147.4359 20.51282,26.92308 44.871793,82.05128 106.410253,71.79487 61.53846,-10.25641 106.41026,-23.07692 132.05129,-48.71795 25.64102,-25.64102 76.92307,-134.61538 60.25641,-142.30769 -16.66667,-7.69231 -44.8718,-28.20513 -61.53847,-7.69231 -16.66666,20.51282 -33.33333,21.79487 -34.61538,43.58975 -1.28205,21.79487 12.82051,80.76923 17.94872,87.17948 5.1282,6.41026 44.87179,74.35898 55.1282,94.8718 10.25641,20.51282 39.74359,93.58974 23.07693,123.07692 -16.66667,29.48718 -51.28206,53.84615 -71.79488,29.48718 -20.51282,-24.35897 -33.33333,-10.25641 -26.92307,-48.71795 6.41025,-38.46154 -10.25641,-52.5641 16.66666,-56.41025 26.92308,-3.84616 37.17949,-3.84616 50,5.1282 12.82052,8.97436 25.64103,55.12821 85.89744,26.92308 60.25641,-28.20513 82.05128,-30.76923 100,-78.20513 17.94872,-47.4359 -17.94872,-98.71795 -17.94872,-98.71795 l 11.53846,123.07692 c 0,0 10.25641,7.69231 16.66667,12.82052 6.41026,5.1282 47.4359,-12.82052 60.25641,-33.33334 12.82051,-20.51282 28.20513,-89.74359 21.79487,-107.6923 -6.41025,-17.94872 -17.94872,-106.41026 -43.58974,-119.23077 -25.64103,-12.82052 -65.38462,33.33333 -65.38462,33.33333 0,0 -20.51282,21.79487 -21.79487,37.17949 -1.28205,15.38461 -2.5641,25.64102 5.12821,28.20512 7.6923,2.56411 39.74359,2.56411 28.20512,-16.66666 -11.53846,-19.23077 -16.66666,-28.20513 -25.64102,-20.51282 -8.97436,7.69231 -12.82051,8.97436 -12.82051,8.97436"
       inkscape:connector-curvature="0" />
  </g>
</svg>
