<?xml version="1.0" encoding="UTF-8" standalone="no"?>
<!-- Created with Inkscape (http://www.inkscape.org/) -->

<svg
   xmlns:dc="http://purl.org/dc/elements/1.1/"
   xmlns:cc="http://creativecommons.org/ns#"
   xmlns:rdf="http://www.w3.org/1999/02/22-rdf-syntax-ns#"
   xmlns:svg="http://www.w3.org/2000/svg"
   xmlns="http://www.w3.org/2000/svg"
   xmlns:sodipodi="http://sodipodi.sourceforge.net/DTD/sodipodi-0.dtd"
   xmlns:inkscape="http://www.inkscape.org/namespaces/inkscape"
   width="744.09448819"
   height="1052.3622047"
   id="svg2"
   version="1.1"
   inkscape:version="0.48.5 r10040"
   sodipodi:docname="cli.svg">
  <defs
     id="defs4">
    <inkscape:path-effect
       effect="spiro"
       id="path-effect3021"
       is_visible="true" />
  </defs>
  <sodipodi:namedview
     id="base"
     pagecolor="#ffffff"
     bordercolor="#666666"
     borderopacity="1.0"
     inkscape:pageopacity="0.0"
     inkscape:pageshadow="2"
     inkscape:zoom="0.78"
     inkscape:cx="375"
     inkscape:cy="606.44689"
     inkscape:document-units="px"
     inkscape:current-layer="layer1"
     showgrid="false"
     inkscape:window-width="1366"
     inkscape:window-height="705"
     inkscape:window-x="-8"
     inkscape:window-y="-8"
     inkscape:window-maximized="1" />
  <metadata
     id="metadata7">
    <rdf:RDF>
      <cc:Work
         rdf:about="">
        <dc:format>image/svg+xml</dc:format>
        <dc:type
           rdf:resource="http://purl.org/dc/dcmitype/StillImage" />
        <dc:title></dc:title>
      </cc:Work>
    </rdf:RDF>
  </metadata>
  <g
     inkscape:label="Layer 1"
     inkscape:groupmode="layer"
     id="layer1">
    <path
       style="font-size:medium;font-style:normal;font-variant:normal;font-weight:normal;font-stretch:normal;text-indent:0;text-align:start;text-decoration:none;line-height:normal;letter-spacing:normal;word-spacing:normal;text-transform:none;direction:ltr;block-progression:tb;writing-mode:lr-tb;text-anchor:start;baseline-shift:baseline;color:#000000;fill:#000000;fill-opacity:1;stroke:none;stroke-width:1px;marker:none;visibility:visible;display:inline;overflow:visible;enable-background:accumulate;font-family:Sans;-inkscape-font-specification:Sans"
       d="m 245.1875,156.0625 c -5.50545,-0.50521 -11.62231,0.11896 -18.40625,2.21875 -26.9678,8.34718 -52.96304,20.54591 -73.5,31.9375 -20.53696,11.39159 -35.58118,21.95618 -40.8125,27.1875 -10.27114,10.27114 -43.678781,44.95785 -57.8125,104.0625 l -0.03125,0.125 c -14.088239,59.09249 1.258507,120.64983 21.90625,147.75 10.214529,13.40657 21.456325,33.93923 37.875,49.875 16.41867,15.93577 38.07692,27.2476 69,22.09375 58.3104,-9.7184 101.72347,-21.72306 128.0625,-44.875 3.58979,6.01049 7.12435,11.8705 11.1875,18.84375 11.8566,20.34849 24.35732,42.46463 29.46875,52.6875 5.10771,10.21542 15.03527,33.61943 21.59375,58.09375 2.41683,9.0189 4.34889,18.16756 5.4375,26.875 -3.77948,-1.46215 -7.10063,-3.40931 -10.09375,-5.625 -6.1065,-4.5204 -10.77978,-10.20509 -14.71875,-15.34375 -3.93897,-5.13866 -7.13075,-9.7259 -10.46875,-12.0625 -6.46157,-4.5231 -12.35997,-6.8212 -19.96875,-7.46875 -7.60878,-0.64755 -16.90466,0.32566 -30.375,2.25 -6.78026,0.96861 -10.92871,2.59359 -13.375,5.1875 -2.44629,2.59391 -3.09375,6.07571 -3.09375,10.53125 0,8.91107 2.56694,21.94207 -0.625,41.09375 -1.60619,9.63716 -2.04015,16.0025 -1.40625,20.5625 0.6339,4.56 2.386,7.34023 4.9375,9.5625 5.103,4.44455 13.30727,6.89614 23.5,19 l 0,0.0312 c 5.1961,6.16235 11.33648,9.27519 17.84375,9.96875 6.51354,0.69423 13.38103,-1.00945 20.09375,-4.40625 13.42544,-6.79359 26.27897,-20.33492 34.65625,-35.15625 5.17616,-9.15783 5.94687,-22.31472 4.28125,-36.75 11.76472,4.02312 27.45169,3.62235 49.34375,-6.625 l 0.0625,-0.0312 c 30.07183,-14.07302 50.58836,-21.76879 65.875,-31.90625 10.97882,-7.28069 19.22647,-15.89676 26.34375,-28.9375 l 0.625,6.625 0,0.21875 0.1875,0.125 c 0,0 10.25869,7.69445 16.65625,12.8125 0.95841,0.76673 2.39959,1.0414 4.21875,1 1.81916,-0.0414 4.03237,-0.41502 6.53125,-1.0625 4.99776,-1.29497 11.1437,-3.71912 17.5,-6.9375 12.7126,-6.43676 26.24744,-16.06465 32.75,-26.46875 6.4966,-10.39457 13.50188,-32.82036 18.15625,-54.96875 2.32719,-11.0742 4.06892,-22.04121 4.8125,-31.40625 0.74358,-9.36504 0.53311,-17.10729 -1.125,-21.75 -1.57479,-4.40941 -3.52243,-13.29483 -5.90625,-24.3125 -2.38382,-11.01767 -5.23803,-24.16056 -8.6875,-37.15625 -3.44947,-12.99569 -7.5041,-25.85971 -12.3125,-36.28125 -4.8084,-10.42154 -10.33494,-18.44872 -16.9375,-21.75 -6.5638,-3.2819 -14.02777,-2.76964 -21.4375,-0.21875 -7.40973,2.55089 -14.80982,7.13746 -21.40625,12.125 -13.16269,9.95228 -23.07959,21.47853 -23.125,21.53125 -10e-5,1.2e-4 -0.0312,0.0312 -0.0312,0.0312 -0.0461,0.049 -5.15176,5.47575 -10.4375,12.84375 -4.48764,6.25549 -8.93445,13.83712 -10.65625,20.8125 -0.95637,0.6704 -1.96264,1.38566 -2.65625,1.8125 C 486.63097,415.70306 485.75,416 485.75,416 l 0.3125,0.9375 c 0,0 1.04611,-0.3577 3.15625,-1.65625 0.47856,-0.2945 1.21732,-0.84921 1.8125,-1.25 -0.15184,0.79439 -0.4358,1.63585 -0.5,2.40625 -0.64064,7.68772 -1.30203,14.10474 -0.8125,19 0.24476,2.44763 0.78431,4.50176 1.78125,6.15625 0.99694,1.65449 2.4781,2.88853 4.5,3.5625 2.0219,0.67397 5.46351,1.12684 9.40625,1.1875 3.94274,0.0607 8.35433,-0.28351 12.1875,-1.34375 3.83317,-1.06024 7.14532,-2.84186 8.75,-5.6875 1.60468,-2.84564 1.37466,-6.66724 -1.5625,-11.5625 -5.76839,-9.61398 -9.89785,-16.68726 -13.84375,-20.46875 -1.97295,-1.89075 -3.94478,-2.96605 -6.03125,-3.03125 -2.08647,-0.0652 -4.20207,0.90535 -6.5,2.875 -2.26787,1.94389 -4.21707,3.45415 -5.84375,4.65625 1.87227,-6.43995 6.04051,-13.50722 10.25,-19.375 5.26724,-7.34222 10.375,-12.78125 10.375,-12.78125 0,0 9.9108,-11.50954 23,-21.40625 6.5446,-4.94835 13.90252,-9.50281 21.15625,-12 7.25373,-2.49719 14.36829,-2.94086 20.625,0.1875 6.21795,3.10898 11.73308,10.94959 16.5,21.28125 4.76692,10.33166 8.80845,23.1279 12.25,36.09375 3.44155,12.96585 6.30369,26.07616 8.6875,37.09375 2.38381,11.01759 4.27591,19.9038 5.90625,24.46875 1.54702,4.33164 1.83255,12.00767 1.09375,21.3125 -0.7388,9.30483 -2.461,20.27131 -4.78125,31.3125 -4.6405,22.08238 -11.73859,44.538 -18.0625,54.65625 -6.31795,10.10872 -19.70458,19.70999 -32.3125,26.09375 -6.30396,3.19188 -12.41442,5.57461 -17.3125,6.84375 -2.44904,0.63457 -4.61103,0.99252 -6.3125,1.03125 -1.70147,0.0387 -2.91834,-0.26593 -3.5625,-0.78125 -6.36188,-5.08951 -16.33932,-12.54353 -16.53125,-12.6875 l -0.71875,-7.8125 c 2.4894,-4.74507 4.86978,-10.05093 7.15625,-16.09375 18.06902,-47.75384 -18.03125,-99.1875 -18.03125,-99.1875 l -1.0625,-1.5625 0.15625,1.875 10.78125,114.71875 c -7.1989,13.66399 -15.51442,22.42404 -26.75,29.875 -15.14945,10.04648 -35.63735,17.73384 -65.78125,31.84375 -21.98541,10.29104 -37.49324,10.59974 -49.03125,6.5 -1.09605,-8.90859 -3.09404,-18.28845 -5.5625,-27.5 -6.58255,-24.56414 -16.5388,-47.9526 -21.6875,-58.25 -5.14498,-10.28995 -17.63865,-32.39336 -29.5,-52.75 -4.10012,-7.03669 -7.66494,-12.97794 -11.28125,-19.03125 1.19903,-1.07747 2.40515,-2.15515 3.53125,-3.28125 12.95309,-12.95309 32.136,-46.58621 46.09375,-78.03125 6.97887,-15.72252 12.62301,-30.90686 15.5,-42.65625 1.4385,-5.8747 2.17707,-10.87101 2.03125,-14.71875 -0.0729,-1.92387 -0.36784,-3.56528 -0.9375,-4.875 -0.56966,-1.30972 -1.42798,-2.3057 -2.59375,-2.84375 -8.27723,-3.82026 -19.50359,-10.88327 -30.8125,-14.4375 -5.65445,-1.77711 -11.36149,-2.6713 -16.71875,-1.8125 -5.35726,0.8588 -10.35784,3.47407 -14.59375,8.6875 -8.28511,10.19706 -16.58015,15.60528 -23.03125,21.25 -6.4511,5.64472 -11.03905,11.60134 -11.6875,22.625 -0.64889,11.03111 2.55153,31.20997 6.5625,49.5 2.00549,9.14501 4.22181,17.80636 6.25,24.59375 1.01409,3.3937 1.99392,6.33772 2.875,8.625 0.88108,2.28728 1.62083,3.90885 2.34375,4.8125 1.20968,1.5121 4.70744,7.00541 9.3125,14.59375 1.29754,2.13812 3.13397,5.30937 4.59375,7.75 C 284.88258,518.5176 241.61517,530.61622 183.25,540.34375 152.63462,545.44631 131.36738,534.295 115.09375,518.5 98.820118,502.705 87.610791,482.23526 77.3125,468.71875 c -20.363267,-26.72679 -35.752636,-88.18216 -21.6875,-147 14.071409,-58.84407 47.32082,-93.38332 57.5625,-103.625 5.02509,-5.02509 20.10506,-15.63518 40.59375,-27 20.48869,-11.36482 46.40289,-23.52426 73.28125,-31.84375 13.3552,-4.13375 23.92701,-2.53638 32.34375,2.34375 8.41674,4.88013 14.69295,13.09055 19.3125,22.25 9.2391,18.3189 11.8125,40.44183 11.8125,46.71875 0,6.22692 -3.46969,12.92014 -8.4375,22.375 -4.96781,9.45486 -11.40539,21.65366 -17.1875,39 l 0.9375,0.3125 c 5.75635,-17.26904 12.15691,-29.38836 17.125,-38.84375 4.96809,-9.45539 8.5625,-16.25016 8.5625,-22.84375 0,-6.54359 -2.5556,-28.64742 -11.90625,-47.1875 -4.67532,-9.27004 -11.06818,-17.64055 -19.71875,-22.65625 -4.32528,-2.50785 -9.2133,-4.15104 -14.71875,-4.65625 z M 332.40625,333.75 c 3.98554,-0.0233 8.13988,0.78235 12.3125,2.09375 11.12699,3.49705 22.32931,10.5342 30.71875,14.40625 0.91756,0.42349 1.59608,1.19955 2.09375,2.34375 0.49767,1.1442 0.77393,2.65784 0.84375,4.5 0.13963,3.68431 -0.57391,8.64473 -2,14.46875 -2.85218,11.64804 -8.50532,26.78101 -15.46875,42.46875 -13.92687,31.37547 -33.18707,65.03082 -45.875,77.71875 -1.06568,1.06568 -2.21087,2.07158 -3.34375,3.09375 -1.42712,-2.38539 -3.2285,-5.49853 -4.5,-7.59375 -4.60968,-7.59596 -8.02058,-12.99447 -9.375,-14.6875 -0.55913,-0.69891 -1.35204,-2.31252 -2.21875,-4.5625 -0.86671,-2.24998 -1.80336,-5.15411 -2.8125,-8.53125 -2.01829,-6.75427 -4.24908,-15.40703 -6.25,-24.53125 -4.00185,-18.24843 -7.16441,-38.45499 -6.53125,-49.21875 0.6336,-10.77122 4.97434,-16.36427 11.34375,-21.9375 6.36941,-5.57323 14.7747,-11.05924 23.15625,-21.375 4.09743,-5.04298 8.86046,-7.51986 14,-8.34375 1.28488,-0.20597 2.57774,-0.30473 3.90625,-0.3125 z m 172.46875,71.5 c 1.75969,0.055 3.47055,0.95485 5.34375,2.75 3.7464,3.5903 7.94868,10.63321 13.71875,20.25 2.83208,4.72012 2.93137,8.11087 1.53125,10.59375 -1.40012,2.48288 -4.42612,4.16441 -8.125,5.1875 -3.69888,1.02309 -8.03649,1.37204 -11.90625,1.3125 -3.86976,-0.0595 -7.30075,-0.54816 -9.125,-1.15625 -1.82426,-0.60808 -3.08267,-1.62324 -3.96875,-3.09375 -0.88608,-1.47051 -1.38899,-3.42119 -1.625,-5.78125 -0.47201,-4.72012 0.17109,-11.11561 0.8125,-18.8125 0.088,-1.05579 0.455,-2.19628 0.71875,-3.3125 1.84915,-1.31543 3.98669,-2.91716 6.78125,-5.3125 2.18925,-1.8765 4.08406,-2.67999 5.84375,-2.625 z m 7.34375,67.15625 c 3.28368,4.88606 33.71677,51.76193 16.8125,96.4375 l -0.0625,0.125 c -2.04257,5.38623 -4.15523,10.14888 -6.34375,14.46875 L 512.21875,472.40625 z M 317.875,613.25 c 2.12741,-0.0302 4.10492,0.0289 5.96875,0.1875 7.45532,0.6345 13.10981,2.82999 19.46875,7.28125 3.07226,2.15058 6.29634,6.68594 10.25,11.84375 3.95366,5.15781 8.64175,10.94828 14.875,15.5625 3.17764,2.35228 6.78334,4.36828 10.84375,5.875 1.70203,14.50052 0.98231,27.63707 -4.0625,36.5625 -8.28939,14.66585 -21.07287,28.08206 -34.25,34.75 -6.58857,3.33397 -13.26434,4.98045 -19.53125,4.3125 -6.26691,-0.66795 -12.16162,-3.61966 -17.21875,-9.625 -10.32009,-12.25511 -18.76085,-14.9157 -23.59375,-19.125 -2.41645,-2.10465 -3.98567,-4.56321 -4.59375,-8.9375 -0.60808,-4.37429 -0.22394,-10.65639 1.375,-20.25 3.21831,-19.30986 0.65625,-32.56412 0.65625,-41.28125 0,-4.35857 0.6426,-7.50978 2.84375,-9.84375 2.20115,-2.33397 6.06873,-3.92053 12.75,-4.875 10.08956,-1.44137 17.83651,-2.34705 24.21875,-2.4375 z"
       id="path3019"
       inkscape:connector-curvature="0" />
  </g>
</svg>
