<?xml version="1.0" encoding="UTF-8" standalone="no"?>
<!-- Created with Inkscape (http://www.inkscape.org/) -->

<svg
   xmlns:dc="http://purl.org/dc/elements/1.1/"
   xmlns:cc="http://creativecommons.org/ns#"
   xmlns:rdf="http://www.w3.org/1999/02/22-rdf-syntax-ns#"
   xmlns:svg="http://www.w3.org/2000/svg"
   xmlns="http://www.w3.org/2000/svg"
   xmlns:sodipodi="http://sodipodi.sourceforge.net/DTD/sodipodi-0.dtd"
   xmlns:inkscape="http://www.inkscape.org/namespaces/inkscape"
   width="744.09448819"
   height="1052.3622047"
   id="svg3025"
   version="1.1"
   inkscape:version="0.48.5 r10040"
   sodipodi:docname="drawing.svg">
  <defs
     id="defs3027">
    <inkscape:path-effect
       effect="spiro"
       id="path-effect3083"
       is_visible="true" />
  </defs>
  <sodipodi:namedview
     id="base"
     pagecolor="#ffffff"
     bordercolor="#666666"
     borderopacity="1.0"
     inkscape:pageopacity="0.0"
     inkscape:pageshadow="2"
     inkscape:zoom="0.35"
     inkscape:cx="375"
     inkscape:cy="520"
     inkscape:document-units="px"
     inkscape:current-layer="layer1"
     showgrid="false"
     inkscape:window-width="1366"
     inkscape:window-height="705"
     inkscape:window-x="-8"
     inkscape:window-y="-8"
     inkscape:window-maximized="1" />
  <metadata
     id="metadata3030">
    <rdf:RDF>
      <cc:Work
         rdf:about="">
        <dc:format>image/svg+xml</dc:format>
        <dc:type
           rdf:resource="http://purl.org/dc/dcmitype/StillImage" />
        <dc:title></dc:title>
      </cc:Work>
    </rdf:RDF>
  </metadata>
  <g
     inkscape:label="Layer 1"
     inkscape:groupmode="layer"
     id="layer1">
    <path
       style="fill:none;stroke:#000000;stroke-width:1px;stroke-linecap:butt;stroke-linejoin:miter;stroke-opacity:1"
       d="m 362.85714,215.21933 c -42.26685,-12.01402 -89.17924,-6.73 -127.71455,14.38523 -38.5353,21.11524 -68.23584,57.81091 -80.85688,99.90048 -9.10695,30.3705 -9.45505,63.31341 -0.99192,93.86958 8.46313,30.55617 25.70987,58.62584 49.14393,79.98347 23.43407,21.35763 52.97896,35.9335 84.18706,41.53339 31.20809,5.59988 63.97751,2.20551 93.37522,-9.67215 21.51603,-7.74507 39.53776,-24.7067 48.57143,-45.71429 10.58808,-24.62235 8.38609,-54.34929 -5.71429,-77.14286 -13.00458,-6.98144 -29.0409,-8.05052 -42.85714,-2.85714 -13.46206,5.06025 -24.38472,15.64508 -31.74994,27.99768 -7.36522,12.3526 -11.42256,26.41845 -13.96435,40.57375 -6.51817,36.29992 -3.48191,73.62211 1.45931,110.17009 4.94122,36.54798 11.77714,72.96435 12.82641,109.82991 0.35648,12.52462 0.0225,25.21304 -3.2273,37.31393 -3.24985,12.1009 -9.65461,23.67542 -19.62984,31.2575 -11.32543,8.60836 -26.81737,11.31933 -40.48667,7.37983 -13.66929,-3.9395 -25.25424,-14.34067 -30.94191,-27.37983 -5.07597,-11.6368 -5.47782,-25.30163 -0.77529,-37.09429 4.70254,-11.79266 14.52784,-21.50874 26.48958,-25.76286 13.55717,-4.82152 28.84363,-2.56127 42.01635,3.22867 13.17271,5.78994 24.60383,14.84894 35.71187,23.99527 11.10804,9.14632 22.173,18.55923 34.91948,25.23538 12.74649,6.67616 27.55023,10.46955 41.63801,7.54068 9.00778,-1.87273 17.32907,-6.41704 24.39676,-12.30728 7.06768,-5.89025 12.94054,-13.1004 18.08493,-20.72814 10.28876,-15.25549 17.81879,-32.3101 28.94689,-46.96458 13.22903,-17.42117 31.4591,-31.37136 40.62913,-51.23125 4.58501,-9.92995 6.6372,-21.35435 3.84707,-31.92985 -1.39506,-5.28776 -3.99598,-10.28444 -7.71857,-14.29055 -3.72259,-4.00611 -8.58119,-6.99314 -13.90049,-8.26263 -4.39967,-1.05001 -9.0569,-0.91837 -13.43167,0.23102 -4.37476,1.1494 -8.46593,3.3029 -11.98892,6.13984 -7.04596,5.67389 -11.69337,13.96427 -14.03093,22.70352 -4.67513,17.47849 -0.56382,35.91929 2.30866,53.78276 3.10334,19.29917 4.77262,38.97667 10.883,57.54416 3.0552,9.28375 7.23224,18.25554 12.99037,26.15276 5.75814,7.89722 13.14255,14.7037 21.84092,19.16022 9.24765,4.73794 19.8013,6.71318 30.18259,6.27035 10.38129,-0.44283 20.59228,-3.25073 30.02727,-7.60367 18.86999,-8.70588 34.36905,-23.30183 48.36157,-38.66668 26.49892,-29.09783 49.04341,-62.13276 63.73631,-98.64296 14.69291,-36.51021 21.33558,-76.61517 16.26369,-115.64275 -3.99537,-30.74389 -15.63178,-61.12066 -36.76123,-83.80758 -10.56473,-11.34346 -23.41113,-20.63588 -37.72738,-26.57999 -14.31625,-5.9441 -30.10712,-8.48617 -45.51139,-6.75529 -18.84373,2.11735 -36.80676,10.65893 -50.80125,23.45438 -13.99448,12.79545 -24.0342,29.72873 -29.19875,47.97419 -3.79647,13.41226 -4.97854,27.88642 -1.0074,41.24801 1.98556,6.68079 5.25538,13.01027 9.79711,18.29687 4.54174,5.2866 10.37237,9.50794 16.92457,11.8837 5.86896,2.12802 12.25936,2.75432 18.44846,1.9369 6.1891,-0.81743 12.17043,-3.06648 17.43726,-6.41813 10.53367,-6.7033 17.9936,-17.75286 21.25714,-29.80449 1.49446,-5.51875 2.14649,-11.32428 1.31042,-16.98033 -0.83607,-5.65606 -3.21872,-11.11128 -7.01067,-15.39043 -3.79194,-4.27915 -8.92606,-7.27917 -14.42984,-8.82783 -5.50379,-1.54866 -11.29526,-1.65855 -17.01277,-1.65855 l -60,0"
       id="path3081"
       inkscape:path-effect="#path-effect3083"
       inkscape:original-d="m 362.85714,215.21933 c 0,0 -174.28571,-145.71429 -208.57143,114.28571 C 120,589.50504 380,535.21933 380,535.21933 c 0,0 31.42857,0 48.57143,-45.71429 17.14286,-45.71429 -5.71429,-77.14286 -5.71429,-77.14286 0,0 -17.14285,-28.57143 -42.85714,-2.85714 -25.71429,25.71429 -45.71429,48.57143 -45.71429,68.57143 0,20 14.28572,220 14.28572,220 0,0 2.85714,48.57143 -22.85714,68.57143 -25.71429,20 -74.28572,5.71428 -71.42858,-20 2.85715,-25.71429 8.57143,-65.71429 25.71429,-62.85715 17.14286,2.85715 131.42857,74.28572 154.28571,60 22.85715,-14.28571 57.14286,-22.85714 71.42858,-80 C 520,606.6479 537.14286,558.07647 528.57143,558.07647 c -8.57143,0 -51.42857,34.28571 -37.14286,82.85714 14.28572,48.57143 0,94.28572 45.71429,102.85714 45.71428,8.57143 77.14285,5.71429 108.57143,-40 31.42857,-45.71428 85.71428,-168.57142 80,-214.28571 -5.71429,-45.71429 -77.14286,-145.71429 -120,-117.14286 -42.85715,28.57143 -80,20 -80,71.42857 0,51.42858 -14.28572,74.28572 25.71428,71.42858 40,-2.85715 71.42857,-8.57143 57.14286,-34.28572 -14.28572,-25.71428 -25.71429,-42.85714 -37.14286,-42.85714 -11.42857,0 -60,0 -60,0"
       inkscape:connector-curvature="0" />
  </g>
</svg>
